# xmcd CD database file
#
# Track frame offsets:
#	150
#	17010
#	32437
#	51765
#	66070
#	80590
#	95072
#	110375
#	124822
#	136677
#
# Disc length: 2004 seconds
#
# Revision: 3
# Processed by: cddbd v1.5.1PL0 Copyright (c) Steve Scherf et al.
# Submitted via: CDex 1.51
#
DISCID=7b07d20a
DTITLE=Michael Jackson - Forever, Michael
DYEAR=1975
DGENRE=Pop
TTITLE0=We're Almost There
TTITLE1=Take Me Back
TTITLE2=One Day In Your Life
TTITLE3=Cinderella Stay Awhile
TTITLE4=We've Got Forever
TTITLE5=Just A Little Bit Of You
TTITLE6=You Are There
TTITLE7=Dapper-Dan
TTITLE8=Dear Michael
TTITLE9=I'll Come Home To You
EXTD=YEAR: 1975
EXTT0=
EXTT1=
EXTT2=
EXTT3=
EXTT4=
EXTT5=
EXTT6=
EXTT7=
EXTT8=
EXTT9=
PLAYORDER=
